Coordinates
version=1
nRows=10
nColumns=28
inDegrees=yes

Units are S.I. units (second, meters, Newtons, ...)
Angles are in degrees.

endheader
time	pelvis_tilt	pelvis_list	pelvis_rotation	pelvis_tx	pelvis_ty	pelvis_tz	hip_flexion_r	hip_adduction_r	hip_rotation_r	knee_angle_r	ankle_angle_r	subtalar_angle_r	mtp_angle_r	hip_flexion_l	hip_adduction_l	hip_rotation_l	knee_angle_l	socket_flexion	socket_adduction	socket_rotation	socket_tx	socket_ty	socket_tz	foot_flex	lumbar_extension	lumbar_bending	lumbar_rotation
      0.31250000	      0.94688069	      1.03665555	     -4.37024601	     -0.42624301	      1.02763541	      0.24464491	     15.16084807	     -3.25212444	     -4.46542307	    -66.94320273	      8.94814104	    -11.82179895	      0.04534699	     -2.56458220	      0.95837633	      9.33033416	      8.21686314	      8.67490366	      0.00000000	      0.00000000	      0.00000000	      0.00000000	      0.00000000	      0.29820878	     -9.60749187	     -2.91277289	      2.67027278
      0.31666667	      1.02721164	      0.83160392	     -4.12924413	     -0.42090896	      1.02823290	      0.24429455	     15.55317980	     -3.13240271	     -4.76798683	    -66.55638343	      9.58668849	    -10.96593712	     -0.23289178	     -3.01951864	      0.74835240	      9.55305900	      8.30072099	      8.66813619	      0.00000000	      0.00000000	      0.00000000	      0.00000000	      0.00000000	      0.34612442	     -9.72432943	     -2.60931068	      2.33118443
      0.32083333	      1.03642251	      0.69269670	     -3.97159586	     -0.41573529	      1.02862678	      0.24416262	     16.07759006	     -3.01423573	     -4.93217712	    -66.20028691	     10.05022112	    -10.78142918	     -0.27003588	     -3.37612070	      0.60323036	      9.67897563	      8.34265145	      8.65621077	      0.00000000	      0.00000000	      0.00000000	      0.00000000	      0.00000000	      0.52080824	     -9.77116202	     -2.42997534	      2.25690532
      0.32500000	      1.02970905	      0.48187969	     -3.79136727	     -0.41050356	      1.02906019	      0.24394441	     16.56378069	     -2.83458872	     -5.14378929	    -65.72607201	     10.53428457	    -10.33110564	     -0.32942507	     -3.73852130	      0.37487569	      9.84257927	      8.44769634	      8.67459579	      0.00000000	      0.00000000	      0.00000000	      0.00000000	      0.00000000	      0.59686129	     -9.79912001	     -2.14250861	      2.10814982
      0.32916667	      1.13133231	      0.29261021	     -3.50324161	     -0.40533715	      1.02956624	      0.24354009	     16.92905044	     -2.77788870	     -5.53583929	    -65.27043174	     11.13894787	     -9.48578832	     -0.75457986	     -4.17874347	      0.17579094	     10.08687725	      8.48719315	      8.66132139	      0.00000000	      0.00000000	      0.00000000	      0.00000000	      0.00000000	      0.70638609	     -9.96817287	     -1.84717355	      1.69933695
      0.33333333	      1.13399386	      0.21214088	     -3.37162103	     -0.40010978	      1.02993080	      0.24356512	     17.39192022	     -2.69261192	     -5.62026229	    -64.72843632	     11.47783688	     -9.41074880	     -0.78152160	     -4.50461091	      0.08501947	     10.19588820	      8.44772774	      8.57353553	      0.00000000	      0.00000000	      0.00000000	      0.00000000	      0.00000000	      0.83432464	     -9.95772193	     -1.77945133	      1.66452337
      0.33750000	      1.10563492	     -0.05586982	     -3.17398294	     -0.39491187	      1.03025639	      0.24333310	     17.85983370	     -2.45892997	     -5.86764644	    -64.14926644	     12.00481945	     -9.03583584	     -0.84654569	     -4.84510487	     -0.21724360	     10.35765755	      8.56718041	      8.60173120	      0.00000000	      0.00000000	      0.00000000	      0.00000000	      0.00000000	      0.95191237	     -9.96210164	     -1.40213316	      1.54790692
      0.34166667	      1.12137687	     -0.21835759	     -2.97577184	     -0.38972488	      1.03057738	      0.24318017	     18.27748461	     -2.35253990	     -6.10462810	    -63.53718381	     12.36862203	     -8.65683759	     -0.99881356	     -5.22117259	     -0.40781426	     10.53165987	      8.67031931	      8.61269500	      0.00000000	      0.00000000	      0.00000000	      0.00000000	      0.00000000	      1.04020372	    -10.00148893	     -1.18032162	      1.35524837
      0.34583333	      1.16362706	     -0.41290509	     -2.75074117	     -0.38460606	      1.03096071	      0.24295099	     18.64305404	     -2.22388815	     -6.38424823	    -62.87037656	     12.81191042	     -8.28191806	     -1.22749129	     -5.59244681	     -0.62720551	     10.72098194	      8.69006020	      8.57694688	      0.00000000	      0.00000000	      0.00000000	      0.00000000	      0.00000000	      1.14948183	    -10.08584486	     -0.90118868	      1.13087508
      0.35000000	      1.19392094	     -0.40179571	     -2.65628330	     -0.37976796	      1.03122818	      0.24302867	     19.11312136	     -2.24681286	     -6.43643641	    -62.27578962	     12.91806047	     -8.25743227	     -1.24402688	     -5.83685660	     -0.59483548	     10.73020033	      8.42585163	      8.36936912	      0.00000000	      0.00000000	      0.00000000	      0.00000000	      0.00000000	      1.22261412	    -10.19596103	     -0.92380183	      1.10559961
